<?xml version="1.0" encoding="utf-8"?>
<!-- Generator: Adobe Illustrator 22.1.0, SVG Export Plug-In . SVG Version: 6.00 Build 0)  -->
<svg version="1.1" xmlns="http://www.w3.org/2000/svg" xmlns:xlink="http://www.w3.org/1999/xlink"
     width="181px" height="79px" style="enable-background:new 0 0 181 79;" xml:space="preserve">
<style type="text/css">
	.st0{enable-background:new    ;}
	.st1{fill:#848484;}
	.st2{fill:#0092EF;}
	.st3{fill:#FF0066;}
	.st4{fill:#000060;}
	.st5{fill:#FFFFFF;}
</style>
<g id="Layer_1">
	<g class="st0">
		<path class="st1" d="M172.2,0h3.3c0.1,0,0.2,0,0.3,0c0.1,0,0.1,0.1,0.1,0.1c0,0.1,0,0.1,0,0.3s0,0.2,0,0.2c0,0.1-0.1,0.1-0.1,0.1
			c-0.1,0-0.2,0.1-0.3,0.1h-1.1v3c0,0.1,0,0.2,0,0.2s0,0.1-0.1,0.2c0,0.1-0.1,0.1-0.2,0.1c-0.1,0-0.2,0-0.3,0c-0.1,0-0.2,0-0.3,0
			c-0.1,0-0.1-0.1-0.2-0.1c0-0.1,0-0.1-0.1-0.2s0-0.1,0-0.2v-3h-1.1c-0.1,0-0.2,0-0.3,0c-0.1,0-0.1-0.1-0.1-0.1c0-0.1,0-0.1,0-0.3
			s0-0.2,0-0.2c0-0.1,0.1-0.1,0.1-0.1C172,0,172.1,0,172.2,0z"/>
		<path class="st1" d="M180.9,0.2c0,0.1,0.1,0.1,0.1,0.2c0,0,0,0.1,0,0.2v3.3c0,0.3-0.1,0.4-0.2,0.5c-0.1,0-0.2,0-0.3,0
			c-0.1,0-0.2,0-0.3,0s-0.1,0-0.2-0.1c0,0-0.1-0.1-0.1-0.1c0-0.1,0-0.2,0-0.3v-2c-0.1,0.1-0.2,0.3-0.4,0.6s-0.3,0.4-0.4,0.5
			c-0.1,0.1-0.1,0.1-0.1,0.1c0,0-0.1,0.1-0.1,0.1c-0.1,0-0.2,0.1-0.3,0.1c-0.1,0-0.2,0-0.2-0.1s-0.1-0.1-0.2-0.1l0-0.1
			c-0.1-0.1-0.2-0.3-0.5-0.6s-0.4-0.5-0.4-0.5v2c0,0.1,0,0.2,0,0.2s0,0.1-0.1,0.2c-0.1,0.1-0.2,0.2-0.5,0.2c-0.2,0-0.4-0.1-0.5-0.2
			c0-0.1-0.1-0.1-0.1-0.2c0,0,0-0.1,0-0.2V0.5c0-0.1,0-0.2,0-0.2c0,0,0-0.1,0.1-0.2c0.1-0.1,0.2-0.2,0.5-0.2c0.1,0,0.2,0,0.3,0
			c0.1,0,0.1,0.1,0.2,0.1l0,0l1.4,1.8c0.7-0.9,1.1-1.5,1.4-1.8c0.1-0.1,0.2-0.2,0.5-0.2C180.7,0,180.9,0.1,180.9,0.2z"/>
	</g>
	<path class="st2" d="M170,56.7l-32.8,18.9c-13.1,7.6-29.5-1.9-29.5-17.1V20.7c0-15.2,16.4-24.6,29.5-17.1L170,22.6
		C183.1,30.2,183.1,49.1,170,56.7z"/>
	<path class="st3" d="M154.4,56.7l-32.8,18.9c-13.1,7.6-29.5-1.9-29.5-17.1V20.7c0-15.2,16.4-24.6,29.5-17.1l32.8,18.9
		C167.5,30.2,167.5,49.1,154.4,56.7z"/>
	<path class="st4" d="M154.4,56.7l-32.8,18.9c-0.7,0.4-1.4,0.7-2.1,1c-6.8-2.9-11.9-9.6-11.9-18.1V20.7c0-8.5,5.1-15.1,11.9-18.1
		c0.7,0.3,1.4,0.6,2.1,1l32.8,18.9C167.5,30.2,167.5,49.1,154.4,56.7z"/>
	<path class="st5" d="M142.9,27.4c-2.9-2.3-5.8-3.4-8.9-3.4h-11.1c-2.2,0-3.6,0.5-4,1.4c-0.3,0.5-0.4,1-0.5,1.4
		c-0.1,0.4-0.1,1-0.1,1.8V58c0,1.2,0.1,2.1,0.3,2.7c0.4,1.3,1.8,2,4.2,2c2.2,0,3.6-0.5,4-1.4c0.3-0.5,0.4-1,0.5-1.4
		c0.1-0.4,0.1-1,0.1-1.8v-6h6.5c3.1,0,6-1.1,8.9-3.4c1.4-1.1,2.6-2.6,3.5-4.4c0.9-1.8,1.3-3.9,1.3-6.2c0-2.3-0.4-4.4-1.3-6.2
		C145.5,30,144.3,28.5,142.9,27.4L142.9,27.4z M134,42.7h-6.5v-9.3h6.5c1.1,0,2.1,0.4,3.1,1.2s1.5,2,1.5,3.5c0,1.5-0.5,2.7-1.5,3.5
		C136.1,42.4,135.1,42.7,134,42.7L134,42.7z"/>
	<path class="st4" d="M73.8,21.5h-2.4v-3.6h6.8v18.8h-4.4V21.5z M59.7,33.4c0.4,0,1-0.1,1.8-0.3c0.9-0.2,1.6-0.3,2.2-0.3
		c4.3,0,6.4,1.7,6.4,5.1c0,1.9-0.9,3.4-2.6,4.5c-1.7,1.1-3.8,1.6-6.2,1.6c-2.9,0-5.5-0.8-7.8-2.5l2.8-3.4c1.5,1.4,3.2,2.1,5.1,2.1
		c1.3,0,2.3-0.2,3.1-0.6c0.8-0.4,1.2-0.9,1.2-1.5c0-1.1-0.9-1.7-2.7-1.7c-0.5,0-1.2,0.1-2.2,0.2c-1,0.1-1.7,0.2-2.2,0.2
		c-3,0-4.5-1.1-4.5-3.2c0-0.6,0.3-1.2,0.8-1.8c0.5-0.6,1.1-1,1.8-1.3c-2.1-1.4-3.2-3.4-3.2-5.9c0-2,0.7-3.7,2.2-5
		c1.5-1.3,3.3-2,5.4-2c1.6,0,2.9,0.3,4,0.8l1.3-1.3c0.3-0.3,0.8-0.3,1.1,0l1.7,1.7c0.3,0.3,0.3,0.8,0,1.1L68.2,21c0.6,1,1,2.3,1,3.6
		c0,2.1-0.7,3.8-2,5.1c-1.3,1.3-2.9,1.9-4.9,1.9c-0.3,0-0.7,0-1.3-0.1l-0.7-0.1c-0.1,0-0.4,0.1-0.9,0.4c-0.5,0.3-0.8,0.5-0.8,0.8
		C58.5,33.1,58.9,33.4,59.7,33.4z M58.9,27.2c0.6,0.7,1.4,1,2.5,1s1.8-0.3,2.4-1c0.6-0.7,0.8-1.6,0.8-2.7c0-0.9-0.3-1.7-0.9-2.4
		c-0.6-0.7-1.4-1-2.3-1c-1,0-1.8,0.3-2.5,0.9c-0.6,0.6-0.9,1.4-0.9,2.4C58,25.6,58.3,26.5,58.9,27.2z M42.2,33.4
		c0.4,0,1-0.1,1.8-0.3c0.9-0.2,1.6-0.3,2.2-0.3c4.3,0,6.4,1.7,6.4,5.1c0,1.9-0.9,3.4-2.6,4.5c-1.7,1.1-3.8,1.6-6.2,1.6
		c-0.9,0-1.8-0.1-2.7-0.3v16.7c0,2.3,0.7,3.7,2.1,4.1c-0.7,1.3-1.8,1.9-3.5,1.9c-2,0-3-1.4-3-4.1V42c0,0-0.1,0-0.1-0.1l2.9-3.2
		c1.3,1,2.8,1.5,4.3,1.5c1.3,0,2.3-0.2,3.1-0.6s1.2-0.9,1.2-1.5c0-1.1-0.9-1.7-2.7-1.7c-0.5,0-1.2,0.1-2.2,0.2
		c-1,0.1-1.7,0.2-2.2,0.2c-3,0-4.5-1.1-4.5-3.2c0-0.6,0.3-1.2,0.8-1.8c0.5-0.6,1.1-1,1.8-1.3C37,29,36,27,36,24.5c0-2,0.7-3.7,2.2-5
		c1.5-1.3,3.3-2,5.4-2c1.6,0,3,0.3,4.1,0.9l1.3-1.3c0.3-0.3,0.8-0.3,1.1,0l1.7,1.7c0.3,0.3,0.3,0.8,0,1.1l-1.2,1.2
		c0.6,1,0.9,2.2,0.9,3.5c0,2.1-0.7,3.8-2,5.1c-1.3,1.3-2.9,1.9-4.9,1.9c-0.3,0-0.7,0-1.3-0.1l-0.7-0.1c-0.1,0-0.4,0.1-0.9,0.4
		s-0.8,0.5-0.8,0.8C40.9,33.1,41.3,33.4,42.2,33.4z M41.3,27.2c0.6,0.7,1.4,1,2.5,1c1,0,1.8-0.3,2.4-1c0.6-0.7,0.8-1.6,0.8-2.7
		c0-0.9-0.3-1.7-0.9-2.4c-0.6-0.7-1.4-1-2.3-1c-1,0-1.8,0.3-2.5,0.9c-0.6,0.6-0.9,1.4-0.9,2.4C40.4,25.6,40.7,26.5,41.3,27.2z
		 M25.7,37c-2.9,0-5.1-0.9-6.7-2.7c-1.6-1.8-2.4-4.1-2.4-7.1c0-2.9,0.8-5.2,2.5-7c1.7-1.8,3.8-2.7,6.5-2.7c2.9,0,5.1,0.9,6.6,2.6
		c1.6,1.7,2.4,4.1,2.4,7.1c0,3-0.8,5.4-2.4,7.1C30.7,36.2,28.5,37,25.7,37z M25.7,21.1c-1.4,0-2.5,0.5-3.3,1.6
		c-0.8,1.1-1.2,2.6-1.2,4.5c0,4.1,1.5,6.2,4.5,6.2c1.4,0,2.5-0.5,3.3-1.6c0.8-1.1,1.2-2.6,1.2-4.6C30.1,23.2,28.7,21.1,25.7,21.1z
		 M6.6,27.4c-0.5,0-1.2,0-2.1-0.1v9.4H0V11c3-0.1,4.8-0.2,5.3-0.2c4.1,0,7,0.6,8.9,1.9c1.9,1.2,2.8,3.2,2.8,5.8
		C17,24.4,13.6,27.4,6.6,27.4z M5.9,14.9c-0.5,0-0.9,0-1.4,0.1v8.2c0.8,0.1,1.4,0.1,1.8,0.1c2.1,0,3.6-0.3,4.6-1
		c1-0.7,1.4-1.8,1.4-3.4C12.4,16.2,10.2,14.9,5.9,14.9z M31.8,42.2c1.9,1.2,2.8,3.2,2.8,5.8c0,5.9-3.5,8.8-10.4,8.8
		c-0.5,0-1.2,0-2.1-0.1v9.4h-4.6V40.5c3-0.1,4.8-0.2,5.3-0.2C27,40.3,30,41,31.8,42.2z M22.2,52.7c0.8,0.1,1.4,0.1,1.8,0.1
		c2.1,0,3.6-0.3,4.6-1s1.4-1.8,1.4-3.4c0-2.7-2.1-4-6.4-4c-0.5,0-0.9,0-1.4,0.1V52.7z M53.6,53.8c0.5,0,1.1,0.1,1.8,0.3
		c0-2.2-1.4-3.3-4.2-3.3c-1.6,0-3,0.3-4.1,0.8l-0.9-3.4c1.5-0.7,3.3-1.1,5.4-1.1c2.9,0,5,0.7,6.3,2c1.3,1.3,2,3.8,2,7.4v4
		c0,2.5,0.5,4.1,1.5,4.7c-0.4,0.6-0.8,1-1.2,1.2c-0.4,0.1-1,0.2-1.5,0.2c-0.6,0-1.2-0.2-1.7-0.7c-0.5-0.5-0.8-1-1-1.5
		c-0.4,0.7-1.1,1.2-2.1,1.6c-1,0.4-2,0.6-3.1,0.6c-2,0-3.6-0.5-4.8-1.5c-1.2-1-1.7-2.4-1.7-4.3c0-2.2,0.8-3.9,2.4-5.1
		C48.2,54.4,50.6,53.8,53.6,53.8z M51.5,63c2.6,0,3.9-1.3,3.9-3.9v-1.8c-0.7-0.2-1.3-0.2-1.7-0.2c-3.5,0-5.2,1.1-5.2,3.4
		C48.5,62.2,49.5,63,51.5,63z M67.7,67.1c0-1.1-0.5-2.8-1.4-5.2l-5.9-14.6H65l5.1,13l4.6-13h4.5L71,69.2c-0.5,1.2-1.5,2.3-3,3.1
		c-1.5,0.8-3.3,1.2-5.4,1.2v-3.9C66,69.7,67.7,68.8,67.7,67.1z"/>
	<path class="st3" d="M74.2,11.4c-0.5,0.5-0.7,1.1-0.7,1.8s0.2,1.3,0.7,1.8c0.5,0.5,1.1,0.7,1.8,0.7c0.7,0,1.3-0.2,1.8-0.7
		c0.5-0.5,0.7-1.1,0.7-1.8s-0.2-1.3-0.7-1.8c-0.5-0.5-1.1-0.7-1.8-0.7C75.3,10.7,74.7,10.9,74.2,11.4z"/>
</g>
<g id="Layer_2">
</g>
</svg>
